<svg xmlns="http://www.w3.org/2000/svg" width="16" height="16" viewBox="0 0 16 16">
  <path d="M7.993 14.881c-1.227.071-2.318-.777-2.551-1.984h5.1c-.224 1.154-1.233 1.988-2.409 1.989-.047-.004-.093-.006-.14-.005zm-6.993-4c.001-.175.071-.342.194-.466l1.514-1.791c.248-.248.387-.584.387-.935V5.972c.132-2.664 2.38-4.727 5.046-4.63.499.03.991.135 1.458.313-.391.578-.6 1.259-.6 1.957 0 1.933 1.567 3.5 3.5 3.5.126-.006.252-.018.377-.038v.614c0 .351.139.687.387.935l1.542 1.791c.258.258.258.677 0 .935-.124.124-.292.194-.468.194H1.661c-.365-.001-.66-.296-.661-.661v-.001z" fill="white"/>
  <path fill="white" d="M15 3.613c0 1.381-1.119 2.5-2.5 2.5S10 4.994 10 3.613s1.119-2.5 2.5-2.5 2.5 1.12 2.5 2.5"/>
</svg>